<svg enable-background="new 0 0 140 140" height="512" viewBox="0 0 140 140" width="512" xmlns="http://www.w3.org/2000/svg"><circle cx="70" cy="70" fill="#4da0dc" r="64"/><path d="m134 70.0001144c0-1.1166992-.0294189-2.2265625-.0859375-3.3291016l-32.1279831-32.1279297c-6.2000122-6.6899414-14.8200073-11.0898438-24.3699951-11.9697266-.7600098-.0703125-1.5100098-.1201172-2.25-.1601562-15.4400024-.7402344-29.8800049 7.9599609-36.460022 21.9399414-.6599731 1.4101562-1.1900024 2.7602539-1.5100098 3.9897461-1.1399536 4.2104492-1.1999512 8.6103516-.4599609 12.9101562.4099731 2.4199219-.3900146 3.5400391-.3900146 3.5400391l-7.460022 11.6601562c-1.0099487 2.2700195-.2999878 3.6601562.6600342 4.4897461l-.0100098.0102539 4.2999878 4.2998047c-.4799805 1.75-.0700073 2.8901367.460022 3.6000977l.0100098.0102539c.2299805.3198242.4899902.5400391.6900024.699707l.0299683.0200195.3500366.3500977c-.3900146 1.449707-.1900024 2.9897461.4899902 4.3300781.8800049 1.7299805.789978 3.4799805.789978 3.4799805-1.0100098 4.3999023-.2399902 6.8100586 1.2000122 8.0698242l28.0419922 28.0419846c1.357666.0859375 2.7225952.1450195 4.1019287.1450195 35.3463135.0000001 63.9999924-28.6542891 63.9999924-63.9999923z" opacity=".1"/><path d="m31.6846523 82.0467529c3.5742092.155365 2.3310184 2.6417465 2.3310184 2.6417465-1.3985558 3.8852081 1.3985558 5.1281281 1.3985558 5.1281281l-.0243759.0878677c-.4060936 1.4620438-.2046547 3.0092621.4808273 4.3630905.8743324 1.7261581.7867393 3.474823.7867393 3.474823-2.9527473 12.8980103 9.32407 8.7026062 9.32407 8.7026062 11.4999886-2.3310165 11.6553535 3.2632141 11.6553535 3.2632141v7.9220276h36.8301773v-9.1649551c-1.6340179-19.0981598 6.8379517-24.242897 6.8379517-24.242897 13.2090073-11.1889877 9.9458008-30.1483955 9.9458008-30.1483955-.043396-.2716217-.0883942-.5416336-.1355438-.8084335-2.9369431-16.6562462-16.8598251-29.1342335-33.7009048-30.6937809-.7612915-.0701809-1.5107956-.1221485-2.2482452-.1580429-15.4374275-.7441483-29.8834648 7.9552441-36.4591751 21.941885-.6629791 1.4106102-1.1869392 2.7596092-1.5156174 3.9832458-1.1314888 4.2109413-1.1906853 8.6147461-.4559174 12.9130096.4141312 2.4210243-.3886795 3.5450134-.3886795 3.5450134l-7.4594154 11.6550827c-2.0202866 4.5066681 2.7973804 5.5947647 2.7973804 5.5947647z" fill="#ededed"/><path d="m68.4953537 71.6355286v5.1695633l1.6612015 2.846817h7.3551636l1.6612014-2.846817v-5.1695633z" fill="#304551"/><path d="m90.9669266 51.3749695c0-10.1414909-8.7800903-18.2322044-19.1535416-17.085392-7.7685089.8588295-14.0964508 7.0628242-15.0887566 14.8154144-1.0241127 8.0010834 3.4575768 15.0985527 10.174839 18.0314445.9600983.4192047 1.5926895 1.3507156 1.5926895 2.3983459v2.6519089h10.5614471v-2.6532669c0-1.043457.6262283-1.9757385 1.5827713-2.392662 6.0795823-2.6498794 10.3305513-8.7102241 10.3305513-15.7657928z" fill="#fed35b"/><path d="m70.8191147 60.5226822c-4.4493713-1.4349518-7.2680702-5.8568344-6.5446472-10.6410866.6460114-4.2723389 4.2001343-7.6308212 8.4989471-8.0672226 6.2540283-.6348953 11.4636459 4.7687225 10.4943314 11.0759468-.5596008 3.6412773-3.2820511 6.5813866-6.7882538 7.7121277h-.0000076c-1.7597275.5675087-3.6533203.5675049-5.4130402-.0000038z" fill="#feda6f"/><g fill="#dd584d"><path d="m80.0111771 70.7654648h-12.4764252c-.6082077 0-1.1011276.4930954-1.1011276 1.1012955 0 .607872.4929199 1.1009598 1.1011276 1.1009598h12.4764252c.6080322 0 1.1009598-.4930878 1.1009598-1.1009598-.0000001-.6082001-.4929276-1.1012955-1.1009598-1.1012955z"/><path d="m80.0111771 74.6038208h-12.4764252c-.6082077 0-1.1011276.4930954-1.1011276 1.1012955 0 .607872.4929199 1.1009598 1.1011276 1.1009598h12.4764252c.6080322 0 1.1009598-.4930878 1.1009598-1.1009598-.0000001-.6082001-.4929276-1.1012955-1.1009598-1.1012955z"/><path d="m97.2628632 50.8569679h-3.3579102c-.2963638 0-.5388718.2423401-.5388718.5385323 0 .2965279.2425079.538868.5388718.538868h3.3579102c.2963562 0 .5386963-.2423401.5386963-.538868-.0000001-.2961922-.2423401-.5385323-.5386963-.5385323z"/><path d="m54.1798477 51.3955002c0-.2961922-.2423401-.5385323-.5387001-.5385323h-3.357914c-.29636 0-.538868.2423401-.538868.5385323 0 .2965279.2425079.538868.538868.538868h3.357914c.29636-.0000001.5387001-.2423402.5387001-.538868z"/><path d="m92.1845093 44.6944885c.1013107.2786903.4121475.42342.6906662.3221092l3.1552887-1.1487579c.2785263-.1013107.4234238-.4119759.3219452-.6903267-.1013107-.2783546-.4118118-.4234238-.6903305-.3221092l-3.1554565 1.1487541c-.2785264.1013108-.4234239.4119759-.3221131.6903305z"/><path d="m54.6709213 57.7750778-3.1554604 1.1484184c-.2783508.1013107-.42342.4119759-.3221092.6903305.1014824.2786903.4121475.42342.6906662.3221092l3.1554604-1.1484184c.2785187-.1013107.4232521-.4119759.3219414-.6906662-.1013146-.2783546-.4119797-.4230842-.6904984-.3217735z"/><path d="m92.1798019 35.9504204c-.1903381-.2268562-.5317993-.256813-.7588272-.0663071l-2.5721588 2.1585007c-.2271957.190506-.2571487.5317993-.0666428.7589951.190506.2268562.532135.2568092.7589874.0663033l2.5725021-2.1585007c.2268525-.1905061.2568132-.5317994.0661393-.7589913z"/><path d="m85.7870941 30.5863113c-.2564774-.1480961-.5875015-.0592384-.7356033.197237l-1.679039 2.9080677c-.148262.2564774-.0595703.5876732.196907.7357712.2568054.1484299.5880051.0595741.7360992-.1972389l1.679039-2.907732c.1481019-.256813.0594102-.5880089-.1974029-.736105z"/><path d="m77.9452362 27.7320957c-.2916489-.0511608-.5723572.1454029-.6238556.4372196l-.5831299 3.3069191c-.0513229.2918167.1450653.572525.436882.6240234.2919922.0514984.5728683-.1454029.6241989-.4372196l.5831223-3.306921c.0514984-.2918167-.1450653-.572525-.4372177-.6240215z"/><path d="m69.6003571 27.7320957c-.2918167.0514965-.4883804.3322048-.436882.6240215l.5831223 3.306921c.0513306.2918167.3322067.488718.6238556.4372196.2921524-.0514984.4885483-.3322067.4372253-.6240234l-.5831299-3.3069191c-.0514985-.2918167-.3322068-.4883804-.6241913-.4372196z"/><path d="m62.4944344 30.7835484c-.148098-.2564754-.479126-.3453331-.7359352-.197237-.2564774.1480961-.3451653.4792919-.1970711.736105l1.679039 2.907732c.148098.256813.4792938.3456688.7357712.1975746.2568092-.1484337.3455009-.4796295.1972389-.7361069z"/><path d="m56.1249542 35.8841133c-.2270241-.190506-.5684853-.1605492-.7591591.0666428-.1903381.2268562-.1603813.5681496.0664749.7586555l2.5724945 2.1585007c.2268562.190506.5684891.160553.7588234-.0663033.1906738-.2271957.1607208-.5684891-.0664749-.7589951z"/><path d="m51.515461 43.8678398 3.1552887 1.1487579c.2785225.1013107.5893555-.0434189.69067-.3217735.1013107-.2786903-.0435905-.5893555-.3221092-.6906662l-3.1554604-1.1487541c-.2785187-.1013145-.589016.0437546-.6904984.3224449-.1013107.2780152.0435906.5886803.3221093.689991z"/><path d="m96.0304642 58.9234962-3.1554565-1.1484184c-.2785187-.1013107-.5891876.0434189-.6904984.3221092-.1013107.2783546.0434189.5890198.3219452.6903305l3.1554565 1.1484184c.2785187.1013107.5891876-.0434189.6904984-.3217735.1014785-.2786903-.0435868-.5893554-.3219452-.6906662z"/></g></svg>