<svg id="Capa_1" enable-background="new 0 0 512 512" height="512" viewBox="0 0 512 512" width="512" xmlns="http://www.w3.org/2000/svg"><g><g><g><g><g><g><g><g><circle cx="256" cy="256" fill="#64e1dc" r="256"/></g></g></g></g></g></g></g><path d="m315.043 110.488-192.559 208.907 187.008 187.008c100.446-21.353 179.108-101.614 198.111-202.908z" fill="#00c8c8"/><g><path d="m293.37 249.023h78.841v171.593h-78.841z" fill="#7584f2" transform="matrix(.707 -.707 .707 .707 -139.281 333.386)"/></g><g><path d="m327.071 235.063h39.358v171.593h-39.358z" fill="#606aea" transform="matrix(.707 -.707 .707 .707 -125.321 339.169)"/></g><g><circle cx="216.116" cy="212.505" fill="#ffd2bf" r="122.172"/></g><g><path d="m338.288 212.505c0-67.474-54.698-122.172-122.172-122.172-35.149 0-66.825 14.849-89.114 38.609l172.677 172.677c23.76-22.289 38.609-53.966 38.609-89.114z" fill="#ffa480"/></g><g><path d="m216.116 354.676c-78.394 0-142.172-63.778-142.172-142.172s63.778-142.172 142.172-142.172 142.171 63.778 142.171 142.172c.001 78.394-63.777 142.172-142.171 142.172zm0-244.343c-56.338 0-102.172 45.834-102.172 102.172s45.834 102.172 102.172 102.172c56.337 0 102.171-45.834 102.171-102.172.001-56.338-45.833-102.172-102.171-102.172z" fill="#414952"/></g><g><path d="m216.116 110.333c56.337 0 102.171 45.834 102.171 102.172 0 29.578-12.638 56.255-32.793 74.93l28.287 28.287c27.39-25.931 44.505-62.612 44.505-103.217 0-78.394-63.778-142.172-142.171-142.172-40.606 0-77.287 17.115-103.218 44.505l28.287 28.287c18.677-20.154 45.354-32.792 74.932-32.792z" fill="#23272b"/></g><g><ellipse cx="169.805" cy="185.444" fill="#ff6c52" rx="28.204" ry="28.204" transform="matrix(.233 -.973 .973 .233 -50.044 307.467)"/></g><g><path d="m198.009 185.444c0-15.577-12.627-28.204-28.204-28.204-4.246 0-8.269.944-11.88 2.624l37.46 37.46c1.68-3.611 2.624-7.634 2.624-11.88z" fill="#ff432e"/></g><g><circle cx="256" cy="234.229" fill="#ff6c52" r="34.302"/></g><g><path d="m290.302 234.229c0-18.945-15.358-34.302-34.302-34.302-15.718 0-28.958 10.577-33.015 24.998l42.319 42.318c14.422-4.056 24.998-17.295 24.998-33.014z" fill="#ff432e"/></g><g><ellipse cx="183.907" cy="267.388" fill="#ff6c52" rx="14.102" ry="14.102" transform="matrix(.707 -.707 .707 .707 -135.207 208.358)"/></g><g><circle cx="234.216" cy="156.859" fill="#ff432e" r="13.34"/></g></g></svg>