<?xml version="1.0" encoding="iso-8859-1"?>
<!-- Generator: Adobe Illustrator 18.0.0, SVG Export Plug-In . SVG Version: 6.00 Build 0)  -->
<!DOCTYPE svg PUBLIC "-//W3C//DTD SVG 1.1//EN" "http://www.w3.org/Graphics/SVG/1.1/DTD/svg11.dtd">
<svg version="1.1" id="Capa_1" xmlns="http://www.w3.org/2000/svg" xmlns:xlink="http://www.w3.org/1999/xlink" x="0px" y="0px"
	 viewBox="0 0 477.518 477.518" style="enable-background:new 0 0 477.518 477.518;" xml:space="preserve">
<path d="M436.161,165.291c-38.291-78.37-79.318-83.845-117.516-65.166c-11.446,5.598-21.283,12.768-28.5,22.115H187.38
	c-7.208-9.347-17.046-16.517-28.492-22.115C120.69,81.446,79.664,86.921,41.373,165.291C3.05,243.645-18.007,365.237,20.19,383.915
	c23.481,11.472,63.875-18.681,100.418-61.776c10.48,19.3,30.926,32.402,54.431,32.402c30.166,0,55.278-21.584,60.77-50.148h5.9
	c5.491,28.564,30.604,50.148,60.77,50.148c23.396,0,43.755-12.984,54.279-32.135c38.942,44.139,78.89,72.1,100.556,61.509
	C495.541,365.237,474.451,243.645,436.161,165.291z M132.775,236.974c0,0.699-0.217,1.336-0.397,1.975
	c-0.731,2.612-2.752,4.556-5.404,5.21c-0.569,0.124-1.113,0.342-1.727,0.342h-5.467h-19.293c-4.16,0-7.528-3.375-7.528-7.527
	v-15.197H77.749c-4.16,0-7.526-3.375-7.526-7.527v-24.76c0-4.152,3.367-7.528,7.526-7.528H92.96v-15.225
	c0-4.152,3.368-7.528,7.528-7.528h19.293h5.467c4.16,0,7.527,3.376,7.527,7.528v15.225h15.211c4.16,0,7.528,3.376,7.528,7.528v24.76
	c0,4.152-3.368,7.527-7.528,7.527h-15.211V236.974z M175.039,329.971c-20.615,0-37.327-16.712-37.327-37.327
	c0-20.615,16.712-37.328,37.327-37.328c20.615,0,37.327,16.712,37.327,37.328C212.367,313.259,195.654,329.971,175.039,329.971z
	 M302.479,329.971c-20.616,0-37.328-16.712-37.328-37.327c0-20.615,16.712-37.328,37.328-37.328
	c20.615,0,37.328,16.712,37.328,37.328C339.806,313.259,323.094,329.971,302.479,329.971z M337.153,216.195
	c-7.907,0-14.308-6.425-14.308-14.34c0-7.885,6.401-14.31,14.308-14.31c7.917,0,14.317,6.425,14.317,14.31
	C351.47,209.771,345.069,216.195,337.153,216.195z M371.89,244.657c-1.626,0.637-3.367,1.058-5.217,1.058
	c-0.296,0-0.545-0.156-0.841-0.172c-6.671-0.404-11.882-5.333-12.994-11.788c-0.132-0.793-0.475-1.524-0.475-2.363
	c0-7.901,6.393-14.324,14.31-14.324c1.85,0,3.591,0.419,5.217,1.058c5.311,2.083,9.091,7.216,9.091,13.266
	C380.981,237.439,377.201,242.556,371.89,244.657z M371.89,185.618c-1.626,0.639-3.367,1.057-5.217,1.057
	c-7.917,0-14.31-6.423-14.31-14.324c0-7.901,6.393-14.324,14.31-14.324c1.85,0,3.591,0.42,5.217,1.058
	c5.311,2.085,9.091,7.217,9.091,13.266C380.981,178.401,377.201,183.519,371.89,185.618z M396.191,216.195
	c-7.917,0-14.309-6.425-14.309-14.34c0-7.885,6.393-14.31,14.309-14.31c7.915,0,14.308,6.425,14.308,14.31
	C410.499,209.771,404.107,216.195,396.191,216.195z"/>
<g>
</g>
<g>
</g>
<g>
</g>
<g>
</g>
<g>
</g>
<g>
</g>
<g>
</g>
<g>
</g>
<g>
</g>
<g>
</g>
<g>
</g>
<g>
</g>
<g>
</g>
<g>
</g>
<g>
</g>
</svg>
